<svg width="26" height="26" viewBox="0 0 26 26" fill="none" xmlns="http://www.w3.org/2000/svg">
<path d="M1.21991 1.21946C1.66318 0.778871 2.26331 0.53125 2.88901 0.53125C3.51471 0.53125 4.11481 0.77886 4.55856 1.21946L13.0591 9.60121L21.4415 1.21946C22.0513 0.697797 22.8836 0.519802 23.6533 0.747584C24.4227 0.974926 25.025 1.57722 25.2524 2.34651C25.4802 3.11623 25.3022 3.94849 24.7805 4.55824L16.3981 12.94L24.7805 21.3214C25.2211 21.7651 25.4688 22.3652 25.4688 22.9908C25.4688 23.6165 25.2211 24.2165 24.7805 24.6603C24.3333 25.1035 23.7283 25.3502 23.0991 25.3467C22.4778 25.3441 21.8825 25.0978 21.4415 24.6603L13.0591 16.2785L4.67704 24.7784C4.23597 25.2159 3.6407 25.4626 3.01945 25.4652C2.34926 25.5018 1.6954 25.252 1.21995 24.7784C0.778881 24.3351 0.53125 23.735 0.53125 23.1094C0.53125 22.4837 0.778881 21.8837 1.21995 21.44L9.72045 12.9401L1.21995 4.55836C0.778881 4.11468 0.53125 3.51459 0.53125 2.88893C0.53125 2.26326 0.778835 1.66318 1.21991 1.21946Z" fill="white"/>
</svg>
