<svg width="30" height="48" viewBox="0 0 30 48" fill="none" xmlns="http://www.w3.org/2000/svg">
<path d="M25.3083 47.2912C24.1789 47.2798 23.0939 46.8514 22.262 46.0875L1.47897 27.0483C0.536568 26.1829 0 24.9623 0 23.6826C0 22.4029 0.536628 21.1818 1.47897 20.3164L22.262 1.27717C23.1487 0.423574 24.3424 -0.0360078 25.5729 0.00220605C26.803 0.0404695 27.9655 0.573323 28.7979 1.48033C29.6298 2.38731 30.061 3.59189 29.993 4.82054C29.9255 6.04967 29.3652 7.19948 28.4385 8.00958L11.2954 23.6833L28.3998 39.3558C29.3096 40.191 29.8425 41.3587 29.8774 42.5927C29.9124 43.827 29.4466 45.0226 28.5859 45.9078C27.7252 46.7931 26.543 47.2916 25.3083 47.2912Z" fill="white"/>
</svg>
