<svg width="30" height="48" viewBox="0 0 30 48" fill="none" xmlns="http://www.w3.org/2000/svg">
<path d="M4.69165 47.2912C5.82112 47.2798 6.90612 46.8514 7.738 46.0875L28.521 27.0483C29.4634 26.1829 30 24.9623 30 23.6826C30 22.4029 29.4634 21.1818 28.521 20.3164L7.738 1.27717C6.85134 0.423574 5.65764 -0.0360078 4.42706 0.00220605C3.19696 0.0404695 2.03446 0.573323 1.2021 1.48033C0.370237 2.38731 -0.0610118 3.59189 0.00697505 4.82054C0.0745253 6.04967 0.634766 7.19947 1.56153 8.00958L18.7046 23.6833L1.60023 39.3558C0.690421 40.191 0.15753 41.3587 0.122581 42.5927C0.0876253 43.827 0.553395 45.0226 1.41411 45.9078C2.2748 46.7931 3.45696 47.2916 4.69165 47.2912Z" fill="white"/>
</svg>
