<svg width="53" height="69" viewBox="0 0 53 69" fill="none" xmlns="http://www.w3.org/2000/svg">
<path d="M23.9241 52.2648H28.5111C29.6807 52.2648 30.6184 53.3899 30.6184 54.7828V58.7993C30.6184 60.1929 29.6813 61.3173 28.5111 61.3173H23.9241C22.7545 61.3173 21.8168 60.1922 21.8168 58.7993V54.7828C21.8174 53.3899 22.7545 52.2648 23.9241 52.2648ZM9.77096 52.2648H14.3524C15.5221 52.2648 16.4646 53.3899 16.4646 54.7828V58.7993C16.4646 60.1929 15.522 61.3173 14.3524 61.3173H9.77096C8.60134 61.3173 7.65876 60.1922 7.65876 58.7993V54.7828C7.65876 53.3899 8.60142 52.2648 9.77096 52.2648ZM37.9701 38.017H42.5571C43.7267 38.017 44.6693 39.1403 44.6693 40.535V58.8003C44.6693 60.1938 43.7266 61.3183 42.5571 61.3183H37.9701C36.8005 61.3183 35.8628 60.1932 35.8628 58.8003V40.535C35.8615 39.1409 36.7999 38.017 37.9701 38.017ZM23.9249 38.017H28.5118C29.6815 38.017 30.6192 39.1403 30.6192 40.535V44.5515C30.6192 45.9445 29.682 47.0689 28.5118 47.0689H23.9249C22.7553 47.0689 21.8175 45.9438 21.8175 44.5515V40.535C21.8181 39.1409 22.7553 38.017 23.9249 38.017ZM9.77174 38.017H14.3532C15.5228 38.017 16.4654 39.1403 16.4654 40.535V44.5515C16.4654 45.9445 15.5228 47.0689 14.3532 47.0689H9.77174C8.60212 47.0689 7.65954 45.9438 7.65954 44.5515V40.535C7.65954 39.1409 8.6022 38.017 9.77174 38.017ZM37.9709 26.0902H42.5578C43.7275 26.0902 44.67 27.2104 44.67 28.6076V30.302C44.67 31.6968 43.7274 32.8219 42.5578 32.8219H37.9709C36.8013 32.8219 35.8635 31.6968 35.8635 30.302V28.6076C35.8623 27.2098 36.8007 26.0902 37.9709 26.0902ZM23.9257 26.0902H28.5126C29.6822 26.0902 30.62 27.2104 30.62 28.6076V30.302C30.62 31.6968 29.6828 32.8219 28.5126 32.8219H23.9257C22.7561 32.8219 21.8183 31.6968 21.8183 30.302V28.6076C21.8189 27.2098 22.7561 26.0902 23.9257 26.0902ZM9.77253 26.0902H14.354C15.5236 26.0902 16.4662 27.2104 16.4662 28.6076V30.302C16.4662 31.6968 15.5235 32.8219 14.354 32.8219H9.77253C8.6029 32.8219 7.66032 31.6968 7.66032 30.302V28.6076C7.66032 27.2098 8.60298 26.0902 9.77253 26.0902ZM9.9275 7.4423H42.4017C43.8855 7.4423 45.0746 8.64426 45.0746 10.1421V13.7272C45.0746 15.2208 43.8861 16.427 42.4017 16.427L9.9275 16.4276C8.44366 16.4276 7.24956 15.2208 7.24956 13.7278V10.1427C7.25017 8.64362 8.44358 7.4423 9.9275 7.4423ZM5.84757 0C2.62296 0 0 2.61436 0 5.82914V63.1709C0 66.3869 2.62296 69 5.84757 69H46.4813C49.7059 69 52.3289 66.3869 52.3289 63.1709V5.82914C52.3289 2.61436 49.7059 0 46.4813 0H5.84757Z" fill="white"/>
<path d="M34.817 10.6924C34.1252 10.6826 33.5596 11.239 33.5596 11.9315C33.5596 12.6222 34.1246 13.1835 34.817 13.1695H39.4541C40.1405 13.1835 40.7116 12.6222 40.7116 11.9315C40.7116 11.239 40.1417 10.682 39.4541 10.6924H34.817Z" fill="white"/>
</svg>
